<? xml version = "1.0" encoding = "UTF-8" ?>
  <svg width="512px" height="512px" enable-background="new 0 0 397.401 397.401" version="1.1" viewBox="0 0 397.4 397.4" xml: space="preserve" xmlns="http://www.w3.org/2000/svg">
    <path d="m173.57 97.768-21.88-22.12c-2.58-3.084-7.171-3.492-10.255-0.912s-3.492 7.171-0.912 10.255c0.258 0.308 0.541 0.595 0.847 0.857l21.88 22.12c3.053 2.616 7.649 2.261 10.265-0.792 2.314-2.701 2.338-6.68 0.055-9.408z" fill="#215b80" />
    <path d="m359.08 76.793c-2.58-3.084-7.171-3.492-10.255-0.912-0.308 0.258-0.595 0.541-0.857 0.847l-22.12 21.88c-3.084 2.58-3.492 7.171-0.912 10.255s7.171 3.492 10.255 0.912c0.308-0.258 0.595-0.541 0.857-0.847l22.12-21.88c3.083-2.58 3.492-7.171 0.912-10.255z" fill="#215b80" />
    <path d="m227.26 72.236c-0.045-0.212-0.099-0.421-0.163-0.628l-8-30.08c-0.832-3.911-4.677-6.407-8.588-5.576s-6.407 4.677-5.576 8.588c0.045 0.212 0.099 0.421 0.163 0.628l8 30.08c0.832 3.911 4.677 6.407 8.588 5.576s6.408-4.677 5.576-8.588z" fill="#215b80" />
    <path d="m326.73 227.13c-1.36-1.36-2.773-2.693-4.24-4l1.2-2.16c1.489-2.737 2.824-5.555 4-8.44 17.039-42.555-3.646-90.866-46.201-107.9-0.08-0.032-0.159-0.064-0.239-0.095-38.472-15.335-82.362 0.024-102.88 36-50.15-14.006-102.16 15.294-116.17 65.445-2.331 8.345-3.5 16.971-3.474 25.635v3.76c-34.817 2.469-61.041 32.695-58.572 67.512 2.333 32.907 29.584 58.483 62.572 58.728h208.2c43.498 0.075 78.821-35.125 78.897-78.623 0.036-20.95-8.276-41.051-23.097-55.857zm-101.44-109.08c16.222-6.451 34.298-6.451 50.52 0 35.167 14.031 52.331 53.889 38.36 89.08-1.012 2.423-2.16 4.787-3.44 7.08v0.64c-20.081-11.674-44.288-13.898-66.16-6.08-4.037-16.106-12.262-30.858-23.84-42.76 8.089-15.018 26.11-21.643 42-15.44 3.798 1.249 7.89-0.818 9.139-4.616 1.146-3.484-0.495-7.275-3.819-8.824-21.575-8.645-46.243-0.591-58.56 19.12-5.459-4.104-11.346-7.605-17.56-10.44 7.812-12.629 19.521-22.373 33.36-27.76zm60.835 227.24c-4.951 1.183-10.025 1.774-15.115 1.76h-208c-26.885-0.024-48.66-21.839-48.636-48.724 0.012-12.885 5.131-25.239 14.236-34.356l-0.08 0.04c9.117-9.132 21.496-14.257 34.4-14.24h3.32c3.989 0.272 7.444-2.742 7.715-6.731 0.043-0.625 4e-3 -1.254-0.115-1.869-0.16-1.387-0.293-2.893-0.4-4.52v-5.08c0.593-44.046 36.78-79.272 80.827-78.679 38.703 0.521 71.445 28.754 77.653 66.959 0.573 3.957 4.245 6.701 8.203 6.128 0.764-0.111 1.506-0.343 2.197-0.688 4.429-2.215 9.1-3.906 13.92-5.04 34.529-8.25 69.208 13.054 77.458 47.583 8.25 34.528-13.054 69.207-47.583 77.457z" fill="#215b80" />
    <path d="m397.08 145.4c-1.104-3.581-4.759-5.727-8.425-4.948l-30.08 8c-3.862 1-6.187 4.935-5.2 8.8 0.997 3.872 4.944 6.203 8.817 5.206 8e-3 -2e-3 0.016-4e-3 0.023-6e-3l30.08-8c3.822-1.178 5.964-5.231 4.785-9.052z" fill="#215b80" />
    <path d="m391.97 216.17-30-8.2c-3.855-1.105-7.875 1.125-8.98 4.98s1.125 7.875 4.98 8.98l30 8.2c3.855 1.105 7.875-1.125 8.98-4.98 1.104-3.855-1.125-7.875-4.98-8.98z" fill="#215b80" />
    <path d="m289.75 36.668c-3.855-1.105-7.875 1.125-8.98 4.98l-8.2 30c-1.144 3.831 1.034 7.865 4.865 9.009 0.084 0.025 0.169 0.049 0.255 0.071 3.836 1.129 7.861-1.065 8.99-4.901 0.018-0.059 0.034-0.119 0.05-0.179l8-30c1.104-3.855-1.125-7.875-4.98-8.98z" fill="#215b80" />
  </svg>
